<svg width="28" height="28" viewBox="0 0 28 28" fill="none" xmlns="http://www.w3.org/2000/svg">
<path d="M24.5 3.5H23.3334V1.1666C23.3334 0.522736 22.8107 0 22.1666 0H21C20.3559 0 19.8334 0.522736 19.8334 1.1666V3.5H8.1666V1.1666C8.1666 0.522736 7.64407 0 7 0H5.8334C5.18933 0 4.6666 0.522736 4.6666 1.1666V3.5H3.5C1.57034 3.5 0 5.07034 0 7V24.5C0 26.4297 1.57034 28 3.5 28H24.5C26.4297 28 28 26.4297 28 24.5V7C28 5.07034 26.4297 3.5 24.5 3.5ZM25.6666 24.5C25.6666 25.1428 25.1428 25.6666 24.5 25.6666H3.5C2.85721 25.6666 2.3334 25.1428 2.3334 24.5V11.7134H25.6666V24.5Z" fill="#3D3D3D"/>
</svg>
