<svg width="22" height="28" viewBox="0 0 22 28" fill="none" xmlns="http://www.w3.org/2000/svg">
<path d="M11 0C5.20996 0 0.5 4.71051 0.5 10.5C0.5 18.2463 10.1877 27.4531 10.6001 27.8416C10.7129 27.947 10.8564 28 11 28C11.1436 28 11.2871 27.947 11.3999 27.8416C11.8123 27.4531 21.5 18.2463 21.5 10.5C21.5 4.71051 16.79 0 11 0ZM11 16.3334C7.78366 16.3334 5.16665 13.7163 5.16665 10.5C5.16665 7.28366 7.78372 4.66665 11 4.66665C14.2163 4.66665 16.8334 7.28372 16.8334 10.5C16.8334 13.7163 14.2163 16.3334 11 16.3334Z" fill="#3D3D3D"/>
</svg>
