<svg width="11" height="15" viewBox="0 0 11 15" fill="none" xmlns="http://www.w3.org/2000/svg">
<path d="M10.1063 8.40806H5.54897C6.00758 8.05491 6.48275 7.72978 6.89194 7.41623C6.99343 7.33871 7.09219 7.259 7.18967 7.17865H10.1063C10.5205 7.17865 10.8562 6.84297 10.8562 6.42879C10.8562 6.0146 10.5206 5.67893 10.1063 5.67893H8.576C8.78464 5.35944 8.96265 5.01672 9.09362 4.63853C9.43089 3.66344 9.26268 2.54064 8.69862 1.68732C7.27611 -0.464945 4.35353 -0.305834 2.3184 0.763307C1.46207 1.21324 2.22006 2.50772 3.07537 2.05839C4.08554 1.52771 5.20707 1.28814 6.31178 1.65135C7.06751 1.89981 7.69518 2.58584 7.76066 3.39234C7.83454 4.30654 7.28089 5.07325 6.64214 5.67936H0.893691C0.479542 5.67936 0.143799 6.01506 0.143799 6.42921C0.143799 6.8434 0.479507 7.17907 0.893691 7.17907H4.7154C4.36642 7.43683 4.02359 7.70224 3.70265 7.99675C3.56215 8.12602 3.43033 8.26393 3.30637 8.40849H0.893691C0.479542 8.40849 0.143799 8.74409 0.143799 9.15838C0.143799 9.57242 0.479507 9.90827 0.893691 9.90827H2.4316C1.94428 11.2617 2.09777 12.7983 3.19441 13.9296C4.71129 15.4946 7.31331 15.1108 9.0744 14.2528C9.9439 13.8291 9.18318 12.5361 8.31739 12.9577C6.95407 13.6222 4.45533 13.9785 3.80806 12.1534C3.49692 11.276 3.66024 10.5435 4.06256 9.90845H10.1062C10.5205 9.90845 10.8561 9.57264 10.8561 9.15856C10.8562 8.7443 10.5206 8.40806 10.1063 8.40806Z" fill="#3D3D3D"/>
</svg>
