<?xml version="1.0" standalone="no"?>
<!DOCTYPE svg PUBLIC "-//W3C//DTD SVG 20010904//EN"
 "http://www.w3.org/TR/2001/REC-SVG-20010904/DTD/svg10.dtd">
<svg version="1.0" xmlns="http://www.w3.org/2000/svg"
 width="115.000000pt" height="45.000000pt" viewBox="0 0 115.000000 45.000000"
 preserveAspectRatio="xMidYMid meet">

<g transform="translate(0.000000,45.000000) scale(0.100000,-0.100000)"
fill="#000000" stroke="none">
<path d="M105 396 c-108 -49 -140 -226 -58 -318 48 -55 146 -72 219 -39 126
57 138 258 21 345 -35 25 -138 33 -182 12z m145 -81 c46 -49 44 -160 -5 -202
-61 -53 -147 -11 -160 79 -10 66 21 134 67 146 44 11 72 5 98 -23z"/>
<path d="M905 396 c-83 -37 -124 -143 -95 -248 24 -84 107 -137 197 -124 73
10 112 44 133 115 l9 31 -45 0 c-37 0 -44 -3 -44 -19 0 -11 -12 -29 -26 -40
-76 -60 -166 21 -150 134 9 58 46 95 95 95 40 0 81 -23 81 -46 0 -10 12 -14
40 -14 46 0 51 14 23 60 -36 61 -144 89 -218 56z"/>
<path d="M420 215 l0 -185 45 0 45 0 0 80 0 80 75 0 75 0 0 -80 0 -80 40 0 40
0 0 185 0 185 -40 0 -40 0 0 -70 0 -70 -75 0 -75 0 0 70 0 70 -45 0 -45 0 0
-185z"/>
</g>
</svg>
