<svg width="219" height="45" viewBox="0 0 219 45" fill="none" xmlns="http://www.w3.org/2000/svg">
<path d="M18.532 3.72899C23.9919 3.72899 28.4018 5.54972 31.7617 9.19118C35.1566 12.7976 36.854 17.5245 36.854 23.3718C36.854 29.2192 35.1566 33.9461 31.7617 37.5525C28.4018 41.124 23.9744 42.9097 18.4795 42.9097C12.9497 42.9097 8.48728 41.124 5.09237 37.5525C1.69746 33.9461 0 29.2192 0 23.3718C0 17.4545 1.67996 12.7101 5.03987 9.13865C8.43478 5.53221 12.9322 3.72899 18.532 3.72899ZM18.427 10.4517C15.3471 10.4517 12.8797 11.6071 11.0247 13.9181C9.20476 16.229 8.29478 19.3277 8.29478 23.2143C8.29478 27.2409 9.20476 30.3922 11.0247 32.6681C12.8447 34.944 15.3471 36.0994 18.532 36.1345C21.6469 36.1345 24.0969 34.979 25.8818 32.6681C27.6668 30.3571 28.5593 27.2059 28.5593 23.2143C28.5593 19.2927 27.6493 16.194 25.8293 13.9181C24.0094 11.6071 21.5419 10.4517 18.427 10.4517Z" fill="#050505"/>
<path d="M74.1449 4.62185V42.0168H65.9551V25.8929H50.678V42.0168H42.4882V4.62185H50.678V18.6975H65.9551V4.62185H74.1449Z" fill="#050505"/>
<path d="M114.79 27.5735C114.37 32.2654 112.725 35.9944 109.855 38.7605C106.985 41.5266 103.048 42.9097 98.0428 42.9097C92.618 42.9097 88.2431 41.124 84.9182 37.5525C81.6283 33.9461 79.9833 29.1842 79.9833 23.2668C79.9833 17.6646 81.6458 13.0077 84.9707 9.29622C88.3306 5.58473 92.793 3.72899 98.3578 3.72899C102.803 3.72899 106.53 4.98949 109.54 7.5105C112.55 10.0315 114.212 13.2353 114.527 17.1218H106.495C106.075 15.056 105.13 13.4629 103.66 12.3424C102.225 11.187 100.405 10.6092 98.2003 10.6092C95.9254 10.6092 94.0004 11.257 92.4255 12.5525C90.8855 13.813 89.8005 15.3711 89.1706 17.2269C88.5406 19.0826 88.2256 21.1134 88.2256 23.3193C88.2256 27.1709 89.1181 30.2521 90.903 32.563C92.688 34.8389 95.0854 35.9769 98.0953 35.9769C103.1 35.9769 105.953 33.1758 106.653 27.5735H114.79Z" fill="#050505"/>
<path d="M139.898 0.441176C142.012 0.441176 143.727 1.16947 145.043 2.62605C146.373 4.06863 147.038 5.95238 147.038 8.27731C147.038 10.6022 146.373 12.493 145.043 13.9496C143.713 15.3922 141.984 16.1134 139.856 16.1134C137.714 16.1134 135.978 15.3922 134.648 13.9496C133.333 12.507 132.675 10.6162 132.675 8.27731C132.675 6.0084 133.319 4.13866 134.606 2.66807C135.908 1.18347 137.672 0.441176 139.898 0.441176ZM139.856 2.64706C138.484 2.64706 137.385 3.15826 136.559 4.18067C135.733 5.18908 135.32 6.54062 135.32 8.23529C135.32 9.97199 135.726 11.3515 136.538 12.374C137.364 13.3964 138.484 13.9076 139.898 13.9076C141.256 13.9076 142.341 13.3964 143.153 12.374C143.979 11.3375 144.392 9.96499 144.392 8.2563C144.392 6.54762 143.979 5.18908 143.153 4.18067C142.341 3.15826 141.242 2.64706 139.856 2.64706Z" fill="#050505"/>
<path d="M147.705 15.7563L153.039 8.0042L148.083 0.798319H151.212L154.614 6.09244L158.163 0.798319H161.103L156.147 8.0042L161.46 15.7563H158.268L154.53 10.042L150.729 15.7563H147.705Z" fill="#050505"/>
<path d="M173.376 0.798319V3.02521H165.669V7.10084H172.431V9.22269H165.669V15.7563H163.023V0.798319H173.376Z" fill="#050505"/>
<path d="M181.918 0.441176C184.032 0.441176 185.747 1.16947 187.063 2.62605C188.393 4.06863 189.058 5.95238 189.058 8.27731C189.058 10.6022 188.393 12.493 187.063 13.9496C185.733 15.3922 184.004 16.1134 181.876 16.1134C179.734 16.1134 177.998 15.3922 176.668 13.9496C175.352 12.507 174.694 10.6162 174.694 8.27731C174.694 6.0084 175.338 4.13866 176.626 2.66807C177.928 1.18347 179.692 0.441176 181.918 0.441176ZM181.876 2.64706C180.504 2.64706 179.405 3.15826 178.579 4.18067C177.753 5.18908 177.34 6.54062 177.34 8.23529C177.34 9.97199 177.746 11.3515 178.558 12.374C179.384 13.3964 180.504 13.9076 181.918 13.9076C183.276 13.9076 184.361 13.3964 185.173 12.374C185.999 11.3375 186.412 9.96499 186.412 8.2563C186.412 6.54762 185.999 5.18908 185.173 4.18067C184.361 3.15826 183.262 2.64706 181.876 2.64706Z" fill="#050505"/>
<path d="M191.405 0.798319H198.481C199.965 0.798319 201.176 1.13445 202.114 1.80672C203.052 2.46499 203.521 3.51541 203.521 4.95798C203.521 5.85434 203.304 6.62465 202.87 7.26891C202.436 7.89916 201.827 8.35434 201.043 8.63445C201.407 8.71849 201.722 8.84454 201.988 9.0126C202.254 9.18067 202.457 9.36275 202.597 9.55882C202.751 9.7549 202.877 10.007 202.975 10.3151C203.073 10.6232 203.136 10.8964 203.164 11.1345C203.206 11.3585 203.241 11.6597 203.269 12.0378C203.283 12.1359 203.297 12.3249 203.311 12.605C203.339 12.8852 203.353 13.0742 203.353 13.1723C203.367 13.2563 203.381 13.4104 203.395 13.6345C203.423 13.8585 203.444 14.0196 203.458 14.1176C203.472 14.2017 203.493 14.3347 203.521 14.5168C203.563 14.6849 203.598 14.8179 203.626 14.916C203.654 15 203.689 15.105 203.731 15.2311C203.773 15.3431 203.822 15.4412 203.878 15.5252C203.934 15.6092 203.997 15.6863 204.067 15.7563H201.253C201.211 15.7003 201.169 15.6373 201.127 15.5672C201.099 15.4832 201.071 15.3992 201.043 15.3151C201.015 15.2171 200.994 15.1331 200.98 15.063C200.966 14.979 200.945 14.874 200.917 14.7479C200.903 14.6078 200.889 14.4958 200.875 14.4118C200.875 14.3277 200.868 14.2017 200.854 14.0336C200.84 13.8655 200.826 13.7395 200.812 13.6555C200.812 13.5714 200.805 13.4244 200.791 13.2143C200.777 13.0042 200.77 12.8571 200.77 12.7731C200.7 11.5546 200.441 10.7213 199.993 10.2731C199.559 9.81092 198.726 9.57983 197.494 9.57983H194.009V15.7563H191.405V0.798319ZM194.009 2.94118V7.62605H197.473C197.977 7.62605 198.404 7.59804 198.754 7.54202C199.104 7.48599 199.454 7.38796 199.804 7.2479C200.168 7.09384 200.441 6.84874 200.623 6.5126C200.819 6.17647 200.917 5.7493 200.917 5.23109C200.917 4.7549 200.833 4.36274 200.665 4.05462C200.497 3.73249 200.252 3.4944 199.93 3.34034C199.622 3.18627 199.3 3.08123 198.964 3.02521C198.642 2.96919 198.257 2.94118 197.809 2.94118H194.009Z" fill="#050505"/>
<path d="M206.211 0.798319H211.902C212.938 0.798319 213.848 0.910364 214.632 1.13445C215.416 1.34454 216.137 1.7437 216.795 2.33193C218.265 3.64846 219 5.54622 219 8.02521C219 10.6723 218.3 12.6961 216.9 14.0966C216.284 14.7129 215.612 15.1471 214.884 15.3992C214.17 15.6373 213.225 15.7563 212.049 15.7563H206.211V0.798319ZM208.815 3.02521V13.5504H211.902C213.54 13.5504 214.695 13.0742 215.367 12.1218C216.039 11.1695 216.375 9.84594 216.375 8.15126C216.375 6.54062 215.997 5.28711 215.241 4.39076C214.485 3.48039 213.316 3.02521 211.734 3.02521H208.815Z" fill="#050505"/>
<path d="M145.505 29.6849V44.6429H142.88V37.9202H136.034V44.6429H133.41V29.6849H136.034V35.6302H142.88V29.6849H145.505Z" fill="#050505"/>
<path d="M155.053 29.3277C157.167 29.3277 158.882 30.056 160.198 31.5126C161.528 32.9552 162.193 34.8389 162.193 37.1639C162.193 39.4888 161.528 41.3796 160.198 42.8361C158.868 44.2787 157.139 45 155.011 45C152.869 45 151.133 44.2787 149.803 42.8361C148.487 41.3936 147.829 39.5028 147.829 37.1639C147.829 34.895 148.473 33.0252 149.761 31.5546C151.063 30.07 152.827 29.3277 155.053 29.3277ZM155.011 31.5336C153.639 31.5336 152.54 32.0448 151.714 33.0672C150.888 34.0756 150.475 35.4272 150.475 37.1218C150.475 38.8585 150.881 40.2381 151.693 41.2605C152.519 42.2829 153.639 42.7941 155.053 42.7941C156.411 42.7941 157.496 42.2829 158.308 41.2605C159.134 40.2241 159.547 38.8515 159.547 37.1429C159.547 35.4342 159.134 34.0756 158.308 33.0672C157.496 32.0448 156.397 31.5336 155.011 31.5336Z" fill="#050505"/>
<path d="M176.699 29.6849V38.8445C176.699 42.9062 174.669 44.937 170.609 44.937C168.495 44.937 166.934 44.4328 165.926 43.4244C164.932 42.416 164.435 40.8753 164.435 38.8025V29.6849H167.06V39.3277C167.06 41.6246 168.257 42.7731 170.651 42.7731C171.379 42.7731 171.974 42.6751 172.436 42.479C172.912 42.2829 173.262 41.9818 173.486 41.5756C173.71 41.1695 173.864 40.7353 173.948 40.2731C174.032 39.7969 174.074 39.2087 174.074 38.5084V29.6849H176.699Z" fill="#050505"/>
<path d="M190.468 34.0966H187.969C187.815 32.3459 186.73 31.4706 184.714 31.4706C183.818 31.4706 183.118 31.6597 182.614 32.0378C182.11 32.402 181.858 32.9062 181.858 33.5504C181.858 34.1527 182.04 34.5658 182.404 34.7899C182.782 35.014 183.608 35.2871 184.882 35.6092C185.218 35.7073 185.477 35.7773 185.659 35.8193C187.325 36.2395 188.459 36.6176 189.061 36.9538C190.391 37.6681 191.056 38.7815 191.056 40.2941C191.056 40.9524 190.944 41.5476 190.72 42.0798C190.496 42.612 190.195 43.0602 189.817 43.4244C189.439 43.7745 188.991 44.0686 188.473 44.3067C187.955 44.5448 187.416 44.7129 186.856 44.8109C186.296 44.923 185.715 44.979 185.113 44.979C183.237 44.979 181.718 44.5308 180.556 43.6345C179.394 42.7381 178.813 41.4216 178.813 39.6849H181.396C181.396 40.7773 181.753 41.5896 182.467 42.1218C183.181 42.6401 184.112 42.8992 185.26 42.8992C186.268 42.8992 187.052 42.6961 187.612 42.2899C188.186 41.8697 188.473 41.2885 188.473 40.5462C188.473 40.07 188.319 39.6849 188.011 39.3908C187.717 39.0826 187.395 38.8655 187.045 38.7395C186.695 38.6134 186.086 38.4384 185.218 38.2143C185.12 38.1863 185.043 38.1653 184.987 38.1513C183.125 37.6751 181.9 37.2829 181.312 36.9748C180.094 36.3445 179.443 35.3711 179.359 34.0546C179.359 33.9566 179.359 33.8585 179.359 33.7605C179.359 32.43 179.856 31.3725 180.85 30.5882C181.858 29.7899 183.202 29.3908 184.882 29.3908C186.506 29.3908 187.829 29.7759 188.851 30.5462C189.873 31.3165 190.412 32.5 190.468 34.0966Z" fill="#050505"/>
<path d="M204.084 29.6849V31.8908H195.916V35.8613H203.497V37.9832H195.916V42.395H204.21V44.6429H193.312V29.6849H204.084Z" fill="#050505"/>
<path fill-rule="evenodd" clip-rule="evenodd" d="M121.377 44.6429V0L124.002 1.14788e-07V44.6429H121.377Z" fill="#050505"/>
</svg>
