<svg width="35" height="27" viewBox="0 0 35 27" fill="none" xmlns="http://www.w3.org/2000/svg">
<path d="M24.2742 0.198212H3.3871C1.51925 0.198212 0 1.71747 0 3.58531V15.7224C0 17.5902 1.51925 19.1095 3.3871 19.1095H6.42702L6.49194 22.1678C6.51176 23.0852 7.56515 23.5992 8.3005 23.0456C13.8599 18.8542 13.0721 19.4481 13.5216 19.1095H24.2742C26.142 19.1095 27.6613 17.5902 27.6613 15.7224V3.58531C27.6613 1.71747 26.142 0.198212 24.2742 0.198212ZM17.7117 13.676H9.9496C9.32581 13.676 8.82056 13.1708 8.82056 12.547C8.82056 11.9232 9.32581 11.418 9.9496 11.418H17.7117C18.3355 11.418 18.8407 11.9232 18.8407 12.547C18.8407 13.1708 18.3355 13.676 17.7117 13.676ZM19.7581 8.73652H7.90323C7.27944 8.73652 6.77419 8.23128 6.77419 7.60749C6.77419 6.9837 7.27944 6.47845 7.90323 6.47845H19.7581C20.3819 6.47845 20.8871 6.9837 20.8871 7.60749C20.8871 8.23128 20.3819 8.73652 19.7581 8.73652ZM35 10.6418V19.9563C35 21.8269 33.4836 23.3434 31.6129 23.3434H28.568L28.5081 25.7009C28.492 26.3141 27.9885 26.801 27.379 26.801C26.9329 26.801 27.2589 26.9287 21.5321 23.3434H16.5827C15.7192 23.3434 14.9305 23.0186 14.3319 22.485C13.5566 21.7937 14.0428 20.511 15.0815 20.511H25.3535C27.5439 20.511 29.3196 18.7354 29.3196 16.545V8.3837C29.3196 7.76012 29.825 7.25466 30.4486 7.25466H31.6129C33.4836 7.25466 35 8.77109 35 10.6418Z" fill="#3D3D3D"/>
</svg>
